<?xml version="1.0" encoding="utf-8"?>
<!-- Generator: Adobe Illustrator 15.0.0, SVG Export Plug-In . SVG Version: 6.00 Build 0)  -->
<!DOCTYPE svg PUBLIC "-//W3C//DTD SVG 1.1//EN" "http://www.w3.org/Graphics/SVG/1.1/DTD/svg11.dtd">
<svg version="1.1" id="Layer_1" xmlns="http://www.w3.org/2000/svg" xmlns:xlink="http://www.w3.org/1999/xlink" x="0px" y="0px"
	 width="17.817px" height="16.29px" viewBox="0 0 17.817 16.29" enable-background="new 0 0 17.817 16.29" xml:space="preserve">
<rect x="328.462" y="101.645" width="194.668" height="130"/>
<g>
	<rect x="105.89" y="101.646" fill="#1D1D1B" width="39.574" height="26.334"/>
	<path fill="#1D1D1B" d="M220.71,216.646H30.882c-1.336,0-2.42-1.082-2.42-2.42v-81.826c0-1.336,1.084-2.42,2.42-2.42H220.71
		c1.336,0,2.42,1.084,2.42,2.42v81.826C223.13,215.563,222.046,216.646,220.71,216.646"/>
	<rect x="41.796" y="141.978" fill="none" stroke="#FFFFFF" stroke-width="2" stroke-miterlimit="10" width="169" height="62.668"/>
	<rect x="69.222" y="218.646" fill="#1D1D1B" width="112.908" height="11"/>
	<path fill="#1D1D1B" d="M196.863,231.646H54.49l0.877-2.656c0.266-0.801,1.016-1.344,1.859-1.344h136.9
		c0.846,0,1.596,0.543,1.859,1.344L196.863,231.646z"/>
	<path fill="#FF3300" d="M56.289,172.912l-4.895-20.62h4.986l1.561,8.505c0.459,2.448,0.887,5.109,1.224,7.189h0.062
		c0.336-2.233,0.826-4.711,1.346-7.25l1.744-8.444h4.956l1.651,8.688c0.459,2.417,0.797,4.62,1.103,6.914h0.061
		c0.307-2.294,0.766-4.711,1.193-7.158l1.682-8.444h4.743l-5.324,20.62h-5.048l-1.744-8.872c-0.396-2.081-0.733-4.008-0.979-6.363
		h-0.062c-0.366,2.324-0.702,4.282-1.192,6.363l-1.958,8.872H56.289z M98.756,162.389c0-5.691-3.457-10.434-9.79-10.434
		c-6.088,0-10.034,4.62-10.034,10.8c0,5.874,3.579,10.493,9.697,10.493C94.657,173.248,98.756,169.149,98.756,162.389
		 M83.858,162.663c0-4.008,1.835-7.006,4.986-7.006c3.213,0,4.987,3.182,4.987,6.884c0,4.008-1.806,7.006-4.957,7.006
		C85.753,169.547,83.858,166.702,83.858,162.663 M120.695,162.389c0-5.691-3.457-10.434-9.79-10.434
		c-6.088,0-10.034,4.62-10.034,10.8c0,5.874,3.579,10.493,9.697,10.493C116.594,173.248,120.695,169.149,120.695,162.389
		 M105.796,162.663c0-4.008,1.835-7.006,4.986-7.006c3.213,0,4.987,3.182,4.987,6.884c0,4.008-1.806,7.006-4.957,7.006
		C107.692,169.547,105.796,166.702,105.796,162.663 M123.756,172.82c1.164,0.153,2.877,0.306,5.294,0.306
		c4.038,0,7.342-0.856,9.515-2.661c1.988-1.683,3.426-4.405,3.426-8.353c0-3.64-1.346-6.179-3.487-7.771
		c-1.988-1.499-4.528-2.202-8.444-2.202c-2.355,0-4.588,0.152-6.303,0.428V172.82z M128.438,155.902
		c0.396-0.092,1.071-0.185,2.111-0.185c4.008,0,6.517,2.265,6.485,6.549c0,4.925-2.753,7.25-6.976,7.219
		c-0.581,0-1.225,0-1.621-0.091V155.902z M145.053,172.912h4.682v-8.291h7.403v-3.793h-7.403v-4.712h7.924v-3.824h-12.605V172.912z
		 M165.86,152.293h-4.682v20.62h4.682V152.293z M169.899,172.913h4.619v-8.108h1.408c1.896,0.031,2.783,0.735,3.334,3.304
		c0.611,2.539,1.102,4.224,1.438,4.805h4.772c-0.397-0.796-1.04-3.488-1.683-5.813c-0.521-1.896-1.315-3.273-2.754-3.854v-0.093
		c1.774-0.642,3.641-2.446,3.641-5.077c0-1.897-0.673-3.336-1.896-4.314c-1.469-1.163-3.61-1.622-6.669-1.622
		c-2.479,0-4.712,0.184-6.211,0.429V172.913z M174.518,155.75c0.337-0.062,0.979-0.153,2.111-0.153
		c2.142,0.03,3.427,0.979,3.427,2.875c0,1.805-1.377,2.968-3.702,2.968h-1.836V155.75z M200.311,160.4h-7.587v-4.284h8.046v-3.824
		h-12.727v20.62h13.155v-3.824h-8.475v-4.895h7.587V160.4z M56.074,178.688h-3.569v15.725h3.569V178.688z M62.419,194.413v-4.736
		c0-2.567-0.047-4.783-0.141-6.859l0.07-0.023c0.77,1.844,1.797,3.873,2.729,5.553l3.36,6.066h3.732v-15.726h-3.267v4.597
		c0,2.356,0.07,4.479,0.304,6.555h-0.07c-0.699-1.772-1.633-3.732-2.566-5.389l-3.266-5.763h-4.153v15.726H62.419z M74.645,193.689
		c0.887,0.49,2.66,0.956,4.456,0.956c4.315,0,6.346-2.239,6.346-4.875c0-2.217-1.307-3.664-4.083-4.689
		c-2.03-0.771-2.916-1.213-2.916-2.218c0-0.815,0.747-1.516,2.286-1.516c1.54,0,2.66,0.442,3.29,0.747l0.793-2.87
		c-0.933-0.42-2.24-0.793-4.013-0.793c-3.709,0-5.949,2.053-5.949,4.735c0,2.287,1.703,3.732,4.315,4.644
		c1.891,0.676,2.637,1.235,2.637,2.216c0,1.027-0.863,1.703-2.496,1.703c-1.517,0-2.986-0.49-3.943-0.98L74.645,193.689z
		 M90.883,194.413h3.569v-12.739h4.292v-2.986H86.66v2.986h4.224V194.413z M107.122,190.377l1.214,4.036h3.826l-4.878-15.726h-4.665
		l-4.807,15.726h3.688l1.119-4.036H107.122z M103.131,187.717l0.934-3.336c0.256-0.91,0.49-2.101,0.724-3.034h0.047
		c0.232,0.934,0.513,2.1,0.793,3.034l0.979,3.336H103.131z M114.26,194.413h9.822v-2.986h-6.253v-12.739h-3.569V194.413z
		 M126.183,194.413h9.821v-2.986h-6.252v-12.739h-3.569V194.413z M146.41,190.377l1.214,4.036h3.826l-4.877-15.726h-4.666
		l-4.806,15.726h3.687l1.119-4.036H146.41z M142.42,187.717l0.934-3.336c0.256-0.91,0.489-2.101,0.723-3.034h0.047
		c0.233,0.934,0.514,2.1,0.793,3.034l0.98,3.336H142.42z M154.646,194.413h3.57v-12.739h4.292v-2.986h-12.085v2.986h4.223V194.413z
		 M167.968,178.688h-3.569v15.725h3.569V178.688z M185.443,186.387c0-4.339-2.637-7.956-7.467-7.956
		c-4.643,0-7.652,3.523-7.652,8.236c0,4.479,2.73,8.002,7.396,8.002C182.316,194.669,185.443,191.542,185.443,186.387
		 M174.081,186.597c0-3.057,1.399-5.344,3.803-5.344c2.45,0,3.802,2.428,3.802,5.25c0,3.057-1.376,5.344-3.778,5.344
		C175.527,191.847,174.081,189.677,174.081,186.597 M191.042,194.413v-4.736c0-2.567-0.047-4.783-0.141-6.859l0.07-0.023
		c0.77,1.844,1.797,3.873,2.729,5.553l3.36,6.066h3.732v-15.726h-3.267v4.597c0,2.356,0.07,4.479,0.304,6.555h-0.07
		c-0.699-1.772-1.633-3.732-2.566-5.389l-3.266-5.763h-4.153v15.726H191.042z"/>
</g>
<g>
	<rect x="646.89" y="101.646" fill="#1D1D1B" width="39.574" height="26.334"/>
	<path fill="#1D1D1B" d="M761.71,216.646H571.882c-1.336,0-2.42-1.082-2.42-2.42v-81.826c0-1.336,1.084-2.42,2.42-2.42H761.71
		c1.336,0,2.42,1.084,2.42,2.42v81.826C764.13,215.563,763.046,216.646,761.71,216.646"/>
	
		<rect x="582.796" y="141.978" fill="none" stroke="#FFFFFF" stroke-width="2" stroke-miterlimit="10" width="169" height="62.668"/>
	<rect x="610.222" y="218.646" fill="#1D1D1B" width="112.908" height="11"/>
	<path fill="#1D1D1B" d="M737.863,231.646H595.49l0.877-2.656c0.266-0.801,1.016-1.344,1.859-1.344h136.9
		c0.846,0,1.596,0.543,1.859,1.344L737.863,231.646z"/>
</g>
<g>
	<polyline fill="none" stroke="#1D70B7" stroke-width="2.4666" stroke-miterlimit="10" points="4.142,6.614 7.625,10.235 
		16.943,0.87 	"/>
	<polyline fill="none" stroke="#1D70B7" stroke-width="1.2333" stroke-miterlimit="10" points="15.417,6.288 15.417,15.673 
		0.617,15.673 0.617,0.872 11.429,0.872 	"/>
</g>
<text transform="matrix(1 0 0 1 -18.9834 -131.4453)" fill="#1D70B7" font-family="'Lato-Medium'" font-size="16">NZHHA certified wood fire installers</text>
<text transform="matrix(1 0 0 1 -18.9834 -101.2197)"><tspan x="0" y="0" fill="#1D70B7" font-family="'Lato-Medium'" font-size="16">Licensed</tspan><tspan x="59.072" y="0" fill="#1D70B7" font-family="'SegoeMDL2Assets'" font-size="16"> </tspan><tspan x="63.134" y="0" fill="#1D70B7" font-family="'Lato-Medium'" font-size="16">Building</tspan><tspan x="117.822" y="0" fill="#1D70B7" font-family="'SegoeMDL2Assets'" font-size="16"> </tspan><tspan x="121.884" y="0" fill="#1D70B7" font-family="'Lato-Medium'" font-size="16">Practitioners</tspan></text>
<path fill="#FFFFFF" d="M356.289,172.912l-4.895-20.62h4.986l1.561,8.505c0.459,2.448,0.887,5.109,1.224,7.189h0.062
	c0.336-2.233,0.826-4.711,1.346-7.25l1.744-8.444h4.956l1.651,8.688c0.459,2.417,0.797,4.62,1.103,6.914h0.061
	c0.307-2.294,0.766-4.711,1.193-7.158l1.682-8.444h4.743l-5.324,20.62h-5.048l-1.744-8.872c-0.396-2.081-0.733-4.008-0.979-6.363
	h-0.062c-0.366,2.324-0.702,4.282-1.192,6.363l-1.958,8.872H356.289z M398.756,162.389c0-5.691-3.457-10.434-9.79-10.434
	c-6.088,0-10.034,4.62-10.034,10.8c0,5.874,3.579,10.493,9.697,10.493C394.657,173.248,398.756,169.149,398.756,162.389
	 M383.858,162.663c0-4.008,1.835-7.006,4.986-7.006c3.213,0,4.987,3.182,4.987,6.884c0,4.008-1.806,7.006-4.957,7.006
	C385.753,169.547,383.858,166.702,383.858,162.663 M420.695,162.389c0-5.691-3.457-10.434-9.79-10.434
	c-6.088,0-10.034,4.62-10.034,10.8c0,5.874,3.579,10.493,9.697,10.493C416.594,173.248,420.695,169.149,420.695,162.389
	 M405.796,162.663c0-4.008,1.835-7.006,4.986-7.006c3.213,0,4.987,3.182,4.987,6.884c0,4.008-1.806,7.006-4.957,7.006
	C407.692,169.547,405.796,166.702,405.796,162.663 M423.756,172.82c1.164,0.153,2.877,0.306,5.294,0.306
	c4.038,0,7.342-0.856,9.515-2.661c1.988-1.683,3.426-4.405,3.426-8.353c0-3.64-1.346-6.179-3.487-7.771
	c-1.988-1.499-4.528-2.202-8.444-2.202c-2.355,0-4.588,0.152-6.303,0.428V172.82z M428.438,155.902
	c0.396-0.092,1.071-0.185,2.111-0.185c4.008,0,6.517,2.265,6.485,6.549c0,4.925-2.753,7.25-6.976,7.219
	c-0.581,0-1.225,0-1.621-0.091V155.902z M445.053,172.912h4.682v-8.291h7.403v-3.793h-7.403v-4.712h7.924v-3.824h-12.605V172.912z
	 M465.86,152.293h-4.682v20.62h4.682V152.293z M469.899,172.913h4.619v-8.108h1.408c1.896,0.031,2.783,0.735,3.334,3.304
	c0.611,2.539,1.102,4.224,1.438,4.805h4.772c-0.397-0.796-1.04-3.488-1.683-5.813c-0.521-1.896-1.315-3.273-2.754-3.854v-0.093
	c1.774-0.642,3.641-2.446,3.641-5.077c0-1.897-0.673-3.336-1.896-4.314c-1.469-1.163-3.61-1.622-6.669-1.622
	c-2.479,0-4.712,0.184-6.211,0.429V172.913z M474.518,155.75c0.337-0.062,0.979-0.153,2.111-0.153
	c2.142,0.03,3.427,0.979,3.427,2.875c0,1.805-1.377,2.968-3.702,2.968h-1.836V155.75z M500.311,160.4h-7.587v-4.284h8.046v-3.824
	h-12.727v20.62h13.155v-3.824h-8.475v-4.895h7.587V160.4z M356.074,178.688h-3.569v15.725h3.569V178.688z M362.419,194.413v-4.736
	c0-2.567-0.047-4.783-0.141-6.859l0.07-0.023c0.77,1.844,1.797,3.873,2.729,5.553l3.36,6.066h3.732v-15.726h-3.267v4.597
	c0,2.356,0.07,4.479,0.304,6.555h-0.07c-0.699-1.772-1.633-3.732-2.566-5.389l-3.266-5.763h-4.153v15.726H362.419z M374.645,193.689
	c0.887,0.49,2.66,0.956,4.456,0.956c4.315,0,6.346-2.239,6.346-4.875c0-2.217-1.307-3.664-4.083-4.689
	c-2.03-0.771-2.916-1.213-2.916-2.218c0-0.815,0.747-1.516,2.286-1.516c1.54,0,2.66,0.442,3.29,0.747l0.793-2.87
	c-0.933-0.42-2.24-0.793-4.013-0.793c-3.709,0-5.949,2.053-5.949,4.735c0,2.287,1.703,3.732,4.315,4.644
	c1.891,0.676,2.637,1.235,2.637,2.216c0,1.027-0.863,1.703-2.496,1.703c-1.517,0-2.986-0.49-3.943-0.98L374.645,193.689z
	 M390.883,194.413h3.569v-12.739h4.292v-2.986H386.66v2.986h4.224V194.413z M407.122,190.377l1.214,4.036h3.826l-4.878-15.726
	h-4.665l-4.807,15.726h3.688l1.119-4.036H407.122z M403.131,187.717l0.934-3.336c0.256-0.91,0.49-2.101,0.724-3.034h0.047
	c0.232,0.934,0.513,2.1,0.793,3.034l0.979,3.336H403.131z M414.26,194.413h9.822v-2.986h-6.253v-12.739h-3.569V194.413z
	 M426.183,194.413h9.821v-2.986h-6.252v-12.739h-3.569V194.413z M446.41,190.377l1.214,4.036h3.826l-4.877-15.726h-4.666
	l-4.806,15.726h3.687l1.119-4.036H446.41z M442.42,187.717l0.934-3.336c0.256-0.91,0.489-2.101,0.723-3.034h0.047
	c0.233,0.934,0.514,2.1,0.793,3.034l0.98,3.336H442.42z M454.646,194.413h3.57v-12.739h4.292v-2.986h-12.085v2.986h4.223V194.413z
	 M467.968,178.688h-3.569v15.725h3.569V178.688z M485.443,186.387c0-4.339-2.637-7.956-7.467-7.956
	c-4.643,0-7.652,3.523-7.652,8.236c0,4.479,2.73,8.002,7.396,8.002C482.316,194.669,485.443,191.542,485.443,186.387
	 M474.081,186.597c0-3.057,1.399-5.344,3.803-5.344c2.45,0,3.802,2.428,3.802,5.25c0,3.057-1.376,5.344-3.778,5.344
	C475.527,191.847,474.081,189.677,474.081,186.597 M491.042,194.413v-4.736c0-2.567-0.047-4.783-0.141-6.859l0.07-0.023
	c0.77,1.844,1.797,3.873,2.729,5.553l3.36,6.066h3.732v-15.726h-3.267v4.597c0,2.356,0.07,4.479,0.304,6.555h-0.07
	c-0.699-1.772-1.633-3.732-2.566-5.389l-3.266-5.763h-4.153v15.726H491.042z"/>
</svg>
