<?xml version="1.0" encoding="utf-8"?>
<!-- Generator: Adobe Illustrator 15.0.0, SVG Export Plug-In . SVG Version: 6.00 Build 0)  -->
<!DOCTYPE svg PUBLIC "-//W3C//DTD SVG 1.1//EN" "http://www.w3.org/Graphics/SVG/1.1/DTD/svg11.dtd">
<svg version="1.1" id="Layer_1" xmlns="http://www.w3.org/2000/svg" xmlns:xlink="http://www.w3.org/1999/xlink" x="0px" y="0px"
	 width="194.668px" height="130px" viewBox="0 0 194.668 130" enable-background="new 0 0 194.668 130" xml:space="preserve">
<rect x="-241" y="0" width="194.668" height="130"/>
<g>
	<rect x="-463.572" fill="#1D1D1B" width="39.574" height="26.334"/>
	<path fill="#1D1D1B" d="M-348.752,115H-538.58c-1.336,0-2.42-1.082-2.42-2.42V30.754c0-1.336,1.084-2.42,2.42-2.42h189.828
		c1.336,0,2.42,1.084,2.42,2.42v81.826C-346.332,113.918-347.416,115-348.752,115"/>
	
		<rect x="-527.666" y="40.332" fill="none" stroke="#FFFFFF" stroke-width="2" stroke-miterlimit="10" width="169" height="62.668"/>
	<rect x="-500.24" y="117" fill="#1D1D1B" width="112.908" height="11"/>
	<path fill="#1D1D1B" d="M-372.6,130h-142.373l0.877-2.656c0.266-0.801,1.016-1.344,1.859-1.344h136.9
		c0.846,0,1.596,0.543,1.859,1.344L-372.6,130z"/>
	<path fill="#FF3300" d="M-513.174,71.267l-4.895-20.62h4.986l1.561,8.505c0.459,2.448,0.887,5.109,1.224,7.189h0.062
		c0.336-2.233,0.826-4.711,1.346-7.25l1.744-8.444h4.956l1.651,8.688c0.459,2.417,0.797,4.62,1.103,6.914h0.061
		c0.307-2.294,0.766-4.711,1.193-7.158l1.682-8.444h4.743l-5.324,20.62h-5.048l-1.744-8.872c-0.396-2.081-0.733-4.008-0.979-6.363
		h-0.062c-0.366,2.324-0.702,4.282-1.192,6.363l-1.958,8.872H-513.174z M-470.706,60.743c0-5.691-3.457-10.434-9.79-10.434
		c-6.088,0-10.034,4.62-10.034,10.8c0,5.874,3.579,10.493,9.697,10.493C-474.806,71.603-470.706,67.504-470.706,60.743
		 M-485.604,61.018c0-4.008,1.835-7.006,4.986-7.006c3.213,0,4.987,3.182,4.987,6.884c0,4.008-1.806,7.006-4.957,7.006
		C-483.709,67.901-485.604,65.057-485.604,61.018 M-448.768,60.743c0-5.691-3.457-10.434-9.79-10.434
		c-6.088,0-10.034,4.62-10.034,10.8c0,5.874,3.579,10.493,9.697,10.493C-452.868,71.603-448.768,67.504-448.768,60.743
		 M-463.666,61.018c0-4.008,1.835-7.006,4.986-7.006c3.213,0,4.987,3.182,4.987,6.884c0,4.008-1.806,7.006-4.957,7.006
		C-461.771,67.901-463.666,65.057-463.666,61.018 M-445.706,71.175c1.164,0.153,2.877,0.306,5.294,0.306
		c4.038,0,7.342-0.856,9.515-2.661c1.988-1.683,3.426-4.405,3.426-8.353c0-3.64-1.346-6.179-3.487-7.771
		c-1.988-1.499-4.528-2.202-8.444-2.202c-2.355,0-4.588,0.152-6.303,0.428V71.175z M-441.024,54.257
		c0.396-0.092,1.071-0.185,2.111-0.185c4.008,0,6.517,2.265,6.485,6.549c0,4.925-2.753,7.25-6.976,7.219
		c-0.581,0-1.225,0-1.621-0.091V54.257z M-424.409,71.267h4.682v-8.291h7.403v-3.793h-7.403v-4.712h7.924v-3.824h-12.605V71.267z
		 M-403.603,50.647h-4.682v20.62h4.682V50.647z M-399.563,71.268h4.619v-8.108h1.408c1.896,0.031,2.783,0.735,3.334,3.304
		c0.611,2.539,1.102,4.224,1.438,4.805h4.772c-0.397-0.796-1.04-3.488-1.683-5.813c-0.521-1.896-1.315-3.273-2.754-3.854v-0.093
		c1.774-0.642,3.641-2.446,3.641-5.077c0-1.897-0.673-3.336-1.896-4.314c-1.469-1.163-3.61-1.622-6.669-1.622
		c-2.479,0-4.712,0.184-6.211,0.429V71.268z M-394.944,54.104c0.337-0.062,0.979-0.153,2.111-0.153
		c2.142,0.03,3.427,0.979,3.427,2.875c0,1.805-1.377,2.968-3.702,2.968h-1.836V54.104z M-369.151,58.755h-7.587v-4.284h8.046v-3.824
		h-12.727v20.62h13.155v-3.824h-8.475v-4.895h7.587V58.755z M-513.389,77.043h-3.569v15.725h3.569V77.043z M-507.043,92.768v-4.736
		c0-2.567-0.047-4.783-0.141-6.859l0.07-0.023c0.77,1.844,1.797,3.873,2.729,5.553l3.36,6.066h3.732V77.042h-3.267v4.597
		c0,2.356,0.07,4.479,0.304,6.555h-0.07c-0.699-1.772-1.633-3.732-2.566-5.389l-3.266-5.763h-4.153v15.726H-507.043z
		 M-494.817,92.044c0.887,0.49,2.66,0.956,4.456,0.956c4.315,0,6.346-2.239,6.346-4.875c0-2.217-1.307-3.664-4.083-4.689
		c-2.03-0.771-2.916-1.213-2.916-2.218c0-0.815,0.747-1.516,2.286-1.516c1.54,0,2.66,0.442,3.29,0.747l0.793-2.87
		c-0.933-0.42-2.24-0.793-4.013-0.793c-3.709,0-5.949,2.053-5.949,4.735c0,2.287,1.703,3.732,4.315,4.644
		c1.891,0.676,2.637,1.235,2.637,2.216c0,1.027-0.863,1.703-2.496,1.703c-1.517,0-2.986-0.49-3.943-0.98L-494.817,92.044z
		 M-478.579,92.768h3.569V80.028h4.292v-2.986h-12.085v2.986h4.224V92.768z M-462.341,88.731l1.214,4.036h3.826l-4.878-15.726
		h-4.665l-4.807,15.726h3.688l1.119-4.036H-462.341z M-466.331,86.071l0.934-3.336c0.256-0.91,0.49-2.101,0.724-3.034h0.047
		c0.232,0.934,0.513,2.1,0.793,3.034l0.979,3.336H-466.331z M-455.202,92.768h9.822v-2.986h-6.253V77.042h-3.569V92.768z
		 M-443.279,92.768h9.821v-2.986h-6.252V77.042h-3.569V92.768z M-423.053,88.731l1.214,4.036h3.826l-4.877-15.726h-4.666
		l-4.806,15.726h3.687l1.119-4.036H-423.053z M-427.042,86.071l0.934-3.336c0.256-0.91,0.489-2.101,0.723-3.034h0.047
		c0.233,0.934,0.514,2.1,0.793,3.034l0.98,3.336H-427.042z M-414.816,92.768h3.57V80.028h4.292v-2.986h-12.085v2.986h4.223V92.768z
		 M-401.494,77.043h-3.569v15.725h3.569V77.043z M-384.02,84.741c0-4.339-2.637-7.956-7.467-7.956c-4.643,0-7.652,3.523-7.652,8.236
		c0,4.479,2.73,8.002,7.396,8.002C-387.146,93.023-384.02,89.896-384.02,84.741 M-395.382,84.951c0-3.057,1.399-5.344,3.803-5.344
		c2.45,0,3.802,2.428,3.802,5.25c0,3.057-1.376,5.344-3.778,5.344C-393.936,90.201-395.382,88.031-395.382,84.951 M-378.42,92.768
		v-4.736c0-2.567-0.047-4.783-0.141-6.859l0.07-0.023c0.77,1.844,1.797,3.873,2.729,5.553l3.36,6.066h3.732V77.042h-3.267v4.597
		c0,2.356,0.07,4.479,0.304,6.555h-0.07c-0.699-1.772-1.633-3.732-2.566-5.389l-3.266-5.763h-4.153v15.726H-378.42z"/>
</g>
<g>
	<rect x="77.428" fill="#1D1D1B" width="39.574" height="26.334"/>
	<path fill="#1D1D1B" d="M192.248,115H2.42C1.084,115,0,113.918,0,112.58V30.754c0-1.336,1.084-2.42,2.42-2.42h189.828
		c1.336,0,2.42,1.084,2.42,2.42v81.826C194.668,113.918,193.584,115,192.248,115"/>
	<rect x="13.334" y="40.332" fill="none" stroke="#FFFFFF" stroke-width="2" stroke-miterlimit="10" width="169" height="62.668"/>
	<rect x="40.76" y="117" fill="#1D1D1B" width="112.908" height="11"/>
	<path fill="#1D1D1B" d="M168.4,130H26.027l0.877-2.656C27.17,126.543,27.92,126,28.764,126h136.9c0.846,0,1.596,0.543,1.859,1.344
		L168.4,130z"/>
</g>
<g>
	<polyline fill="none" stroke="#1D70B7" stroke-width="2.4666" stroke-miterlimit="10" points="-565.32,-95.031 -561.838,-91.41 
		-552.52,-100.775 	"/>
	<polyline fill="none" stroke="#1D70B7" stroke-width="1.2333" stroke-miterlimit="10" points="-554.045,-95.357 -554.045,-85.973 
		-568.846,-85.973 -568.846,-100.773 -558.033,-100.773 	"/>
</g>
<text transform="matrix(1 0 0 1 -588.4458 -233.0908)" fill="#1D70B7" font-family="'Lato-Medium'" font-size="16">NZHHA certified wood fire installers</text>
<text transform="matrix(1 0 0 1 -588.4458 -202.8652)"><tspan x="0" y="0" fill="#1D70B7" font-family="'Lato-Medium'" font-size="16">Licensed</tspan><tspan x="59.072" y="0" fill="#1D70B7" font-family="'SegoeMDL2Assets'" font-size="16"> </tspan><tspan x="63.134" y="0" fill="#1D70B7" font-family="'Lato-Medium'" font-size="16">Building</tspan><tspan x="117.822" y="0" fill="#1D70B7" font-family="'SegoeMDL2Assets'" font-size="16"> </tspan><tspan x="121.884" y="0" fill="#1D70B7" font-family="'Lato-Medium'" font-size="16">Practitioners</tspan></text>
<path fill="#FFFFFF" d="M-213.174,71.267l-4.895-20.62h4.986l1.561,8.505c0.459,2.448,0.887,5.109,1.224,7.189h0.062
	c0.336-2.233,0.826-4.711,1.346-7.25l1.744-8.444h4.956l1.651,8.688c0.459,2.417,0.797,4.62,1.103,6.914h0.061
	c0.307-2.294,0.766-4.711,1.193-7.158l1.682-8.444h4.743l-5.324,20.62h-5.048l-1.744-8.872c-0.396-2.081-0.733-4.008-0.979-6.363
	h-0.062c-0.366,2.324-0.702,4.282-1.192,6.363l-1.958,8.872H-213.174z M-170.706,60.743c0-5.691-3.457-10.434-9.79-10.434
	c-6.088,0-10.034,4.62-10.034,10.8c0,5.874,3.579,10.493,9.697,10.493C-174.806,71.603-170.706,67.504-170.706,60.743
	 M-185.604,61.018c0-4.008,1.835-7.006,4.986-7.006c3.213,0,4.987,3.182,4.987,6.884c0,4.008-1.806,7.006-4.957,7.006
	C-183.709,67.901-185.604,65.057-185.604,61.018 M-148.768,60.743c0-5.691-3.457-10.434-9.79-10.434
	c-6.088,0-10.034,4.62-10.034,10.8c0,5.874,3.579,10.493,9.697,10.493C-152.868,71.603-148.768,67.504-148.768,60.743
	 M-163.666,61.018c0-4.008,1.835-7.006,4.986-7.006c3.213,0,4.987,3.182,4.987,6.884c0,4.008-1.806,7.006-4.957,7.006
	C-161.771,67.901-163.666,65.057-163.666,61.018 M-145.706,71.175c1.164,0.153,2.877,0.306,5.294,0.306
	c4.038,0,7.342-0.856,9.515-2.661c1.988-1.683,3.426-4.405,3.426-8.353c0-3.64-1.346-6.179-3.487-7.771
	c-1.988-1.499-4.528-2.202-8.444-2.202c-2.355,0-4.588,0.152-6.303,0.428V71.175z M-141.024,54.257
	c0.396-0.092,1.071-0.185,2.111-0.185c4.008,0,6.517,2.265,6.485,6.549c0,4.925-2.753,7.25-6.976,7.219
	c-0.581,0-1.225,0-1.621-0.091V54.257z M-124.409,71.267h4.682v-8.291h7.403v-3.793h-7.403v-4.712h7.924v-3.824h-12.605V71.267z
	 M-103.603,50.647h-4.682v20.62h4.682V50.647z M-99.563,71.268h4.619v-8.108h1.408c1.896,0.031,2.783,0.735,3.334,3.304
	c0.611,2.539,1.102,4.224,1.438,4.805h4.772c-0.397-0.796-1.04-3.488-1.683-5.813c-0.521-1.896-1.315-3.273-2.754-3.854v-0.093
	c1.774-0.642,3.641-2.446,3.641-5.077c0-1.897-0.673-3.336-1.896-4.314c-1.469-1.163-3.61-1.622-6.669-1.622
	c-2.479,0-4.712,0.184-6.211,0.429V71.268z M-94.944,54.104c0.337-0.062,0.979-0.153,2.111-0.153
	c2.142,0.03,3.427,0.979,3.427,2.875c0,1.805-1.377,2.968-3.702,2.968h-1.836V54.104z M-69.151,58.755h-7.587v-4.284h8.046v-3.824
	h-12.727v20.62h13.155v-3.824h-8.475v-4.895h7.587V58.755z M-213.389,77.043h-3.569v15.725h3.569V77.043z M-207.043,92.768v-4.736
	c0-2.567-0.047-4.783-0.141-6.859l0.07-0.023c0.77,1.844,1.797,3.873,2.729,5.553l3.36,6.066h3.732V77.042h-3.267v4.597
	c0,2.356,0.07,4.479,0.304,6.555h-0.07c-0.699-1.772-1.633-3.732-2.566-5.389l-3.266-5.763h-4.153v15.726H-207.043z
	 M-194.817,92.044c0.887,0.49,2.66,0.956,4.456,0.956c4.315,0,6.346-2.239,6.346-4.875c0-2.217-1.307-3.664-4.083-4.689
	c-2.03-0.771-2.916-1.213-2.916-2.218c0-0.815,0.747-1.516,2.286-1.516c1.54,0,2.66,0.442,3.29,0.747l0.793-2.87
	c-0.933-0.42-2.24-0.793-4.013-0.793c-3.709,0-5.949,2.053-5.949,4.735c0,2.287,1.703,3.732,4.315,4.644
	c1.891,0.676,2.637,1.235,2.637,2.216c0,1.027-0.863,1.703-2.496,1.703c-1.517,0-2.986-0.49-3.943-0.98L-194.817,92.044z
	 M-178.579,92.768h3.569V80.028h4.292v-2.986h-12.085v2.986h4.224V92.768z M-162.341,88.731l1.214,4.036h3.826l-4.878-15.726h-4.665
	l-4.807,15.726h3.688l1.119-4.036H-162.341z M-166.331,86.071l0.934-3.336c0.256-0.91,0.49-2.101,0.724-3.034h0.047
	c0.232,0.934,0.513,2.1,0.793,3.034l0.979,3.336H-166.331z M-155.202,92.768h9.822v-2.986h-6.253V77.042h-3.569V92.768z
	 M-143.279,92.768h9.821v-2.986h-6.252V77.042h-3.569V92.768z M-123.053,88.731l1.214,4.036h3.826l-4.877-15.726h-4.666
	l-4.806,15.726h3.687l1.119-4.036H-123.053z M-127.042,86.071l0.934-3.336c0.256-0.91,0.489-2.101,0.723-3.034h0.047
	c0.233,0.934,0.514,2.1,0.793,3.034l0.98,3.336H-127.042z M-114.816,92.768h3.57V80.028h4.292v-2.986h-12.085v2.986h4.223V92.768z
	 M-101.494,77.043h-3.569v15.725h3.569V77.043z M-84.02,84.741c0-4.339-2.637-7.956-7.467-7.956c-4.643,0-7.652,3.523-7.652,8.236
	c0,4.479,2.73,8.002,7.396,8.002C-87.146,93.023-84.02,89.896-84.02,84.741 M-95.382,84.951c0-3.057,1.399-5.344,3.803-5.344
	c2.45,0,3.802,2.428,3.802,5.25c0,3.057-1.376,5.344-3.778,5.344C-93.936,90.201-95.382,88.031-95.382,84.951 M-78.42,92.768v-4.736
	c0-2.567-0.047-4.783-0.141-6.859l0.07-0.023c0.77,1.844,1.797,3.873,2.729,5.553l3.36,6.066h3.732V77.042h-3.267v4.597
	c0,2.356,0.07,4.479,0.304,6.555h-0.07c-0.699-1.772-1.633-3.732-2.566-5.389l-3.266-5.763h-4.153v15.726H-78.42z"/>
</svg>
